<?xml version="1.0" encoding="utf-8"?>
<!-- Generator: Adobe Illustrator 22.0.1, SVG Export Plug-In . SVG Version: 6.00 Build 0)  -->
<svg version="1.1" id="Capa_1" xmlns="http://www.w3.org/2000/svg" xmlns:xlink="http://www.w3.org/1999/xlink" x="0px" y="0px"
	 viewBox="0 0 716.3 565.8" style="enable-background:new 0 0 716.3 565.8;" xml:space="preserve">
<style type="text/css">
	.st0{fill:#FFFFFF;}
</style>
<g>
	<path class="st0" d="M673.9,29.7c-7-3.1-14.8-4.8-23-4.8H65.4c-8.2,0-16,1.7-23,4.8c-19.9,6.3-34.4,25-34.4,47v5.6c0,0,0,0,0,0
		v403.9c0,0,0,0,0,0v5.6c0,22,14.5,40.7,34.4,47c7,3.1,14.8,4.8,23,4.8h585.6c8.2,0,16-1.7,23-4.8c19.9-6.3,34.4-25,34.4-47v-5.7
		V82.3v-5.7C708.4,54.7,693.9,36,673.9,29.7z M666.5,82.3v403.9c0,8.6-7,15.6-15.6,15.6H65.4c-8.6,0-15.6-7-15.6-15.6V82.3
		c0-8.6,7-15.6,15.6-15.6h585.6C659.5,66.7,666.5,73.7,666.5,82.3z"/>
	<path class="st0" d="M449.5,174.4h113.6c11.5,0,20.9-9.4,20.9-20.9c0-11.5-9.4-20.9-20.9-20.9H449.5c-11.5,0-20.9,9.4-20.9,20.9
		C428.6,165,438,174.4,449.5,174.4z"/>
	<path class="st0" d="M597.2,359.1H415.4c-10,0-18.1,9.4-18.1,20.9c0,11.5,8.1,20.9,18.1,20.9h181.7c10,0,18.1-9.4,18.1-20.9
		C615.3,368.5,607.1,359.1,597.2,359.1z"/>
	<path class="st0" d="M597.2,289.1H415.4c-10,0-18.1,9.4-18.1,20.9c0,11.5,8.1,20.9,18.1,20.9h181.7c10,0,18.1-9.4,18.1-20.9
		C615.3,298.5,607.1,289.1,597.2,289.1z"/>
	<path class="st0" d="M303,450.3H150.3c-25,0-45.3-20.3-45.3-45.3V252.3c0-25,20.3-45.3,45.3-45.3H303c25,0,45.3,20.3,45.3,45.3V405
		C348.3,430,328,450.3,303,450.3z M150.3,239.6c-7,0-12.7,5.7-12.7,12.7V405c0,7,5.7,12.7,12.7,12.7H303c7,0,12.7-5.7,12.7-12.7
		V252.3c0-7-5.7-12.7-12.7-12.7H150.3z"/>
</g>
</svg>
