<?xml version="1.0" encoding="utf-8"?>
<!-- Generator: Adobe Illustrator 22.0.1, SVG Export Plug-In . SVG Version: 6.00 Build 0)  -->
<svg version="1.1" id="Layer_1" xmlns="http://www.w3.org/2000/svg" xmlns:xlink="http://www.w3.org/1999/xlink" x="0px" y="0px"
	 viewBox="0 0 14 14" style="enable-background:new 0 0 14 14;" xml:space="preserve">
<style type="text/css">
	.st0{fill:#E2574C;}
	.st1{fill:#FFFFFF;}
</style>
<g>
	<path class="st0" d="M7,0C3.1,0,0,3.1,0,7c0,3.9,3.1,7,7,7c3.9,0,7-3.1,7-7C14,3.1,10.9,0,7,0z"/>
</g>
<path class="st1" d="M7,2.5c-0.6,0-1,0.3-1,0.8v4.4c0,0.5,0.4,0.8,1,0.8c0.6,0,1-0.3,1-0.8V3.3C8,2.8,7.6,2.5,7,2.5z"/>
<path class="st1" d="M7,9.5c-0.5,0-1,0.4-1,1c0,0.5,0.4,1,1,1s1-0.4,1-1C8,9.9,7.5,9.5,7,9.5z"/>
</svg>
