<?xml version="1.0" encoding="utf-8"?>
<!-- Generator: Adobe Illustrator 22.0.1, SVG Export Plug-In . SVG Version: 6.00 Build 0)  -->
<svg version="1.1" id="Layer_1" xmlns="http://www.w3.org/2000/svg" xmlns:xlink="http://www.w3.org/1999/xlink" x="0px" y="0px"
	 viewBox="0 0 605 605" style="enable-background:new 0 0 605 605;" xml:space="preserve" fill="#ffffff">
<style type="text/css">
</style>
<g>
	<g>
		<path class="st0" d="M293.5,325.6c0.6,0,1.2,0,2,0c0.2,0,0.5,0,0.7,0c0.4,0,0.9,0,1.2,0c36.1-0.6,65.3-13.3,86.8-37.6
			c47.4-53.4,39.5-145,38.7-153.8c-3.1-65.6-34.1-97-59.7-111.7c-19.1-11-41.4-16.9-66.2-17.4h-0.9c-0.1,0-0.4,0-0.5,0h-0.7
			c-13.7,0-40.5,2.2-66.2,16.9c-25.9,14.7-57.4,46-60.5,112.2c-0.9,8.7-8.7,100.3,38.7,153.8C228.2,312.3,257.4,325,293.5,325.6z
			 M201,137.4c0-0.4,0.1-0.7,0.1-1c4.1-88.3,66.7-97.8,93.6-97.8h0.5c0.2,0,0.6,0,1,0c33.2,0.7,89.8,14.3,93.6,97.8
			c0,0.4,0,0.7,0.1,1c0.1,0.9,8.7,84.6-30.4,128.7c-15.5,17.5-36.2,26.1-63.4,26.3c-0.2,0-0.4,0-0.6,0l0,0c-0.2,0-0.4,0-0.6,0
			c-27.1-0.2-47.9-8.9-63.3-26.3C192.5,222.2,200.9,138.1,201,137.4z"/>
		<path class="st0" d="M548.5,477.6c0-0.1,0-0.2,0-0.4c0-1-0.1-2-0.1-3.1c-0.7-24.4-2.3-81.4-55.8-99.6c-0.4-0.1-0.9-0.2-1.2-0.4
			C435.8,360,389.7,328,389.2,327.6c-7.5-5.3-17.9-3.4-23.1,4.1c-5.3,7.5-3.4,17.9,4.1,23.1c2.1,1.5,51.1,35.6,112.4,51.3
			c28.7,10.2,31.9,40.9,32.8,68.9c0,1.1,0,2.1,0.1,3.1c0.1,11.1-0.6,28.2-2.6,38c-19.9,11.3-98.1,50.5-217.1,50.5
			c-118.4,0-197.1-39.3-217.2-50.6c-2-9.8-2.8-27-2.6-38c0-1,0.1-2,0.1-3.1c0.9-28.1,4.1-58.7,32.8-68.9
			c61.3-15.8,110.3-50,112.4-51.3c7.5-5.3,9.4-15.6,4.1-23.1c-5.3-7.5-15.6-9.4-23.1-4.1c-0.5,0.4-46.4,32.4-102.2,46.5
			c-0.5,0.1-0.9,0.2-1.2,0.4c-53.4,18.3-55,75.3-55.8,99.6c0,1.1,0,2.1-0.1,3.1c0,0.1,0,0.2,0,0.4c-0.1,6.4-0.2,39.3,6.3,55.8
			c1.2,3.2,3.4,5.9,6.4,7.8c3.7,2.5,92.2,58.9,240.3,58.9s236.6-56.5,240.3-58.9c2.8-1.8,5.2-4.6,6.4-7.8
			C548.7,516.8,548.6,484,548.5,477.6z"/>
	</g>
</g>
</svg>
