<?xml version="1.0" encoding="utf-8"?>
<!-- Generator: Adobe Illustrator 22.0.1, SVG Export Plug-In . SVG Version: 6.00 Build 0)  -->
<svg version="1.1" id="Capa_1" xmlns="http://www.w3.org/2000/svg" xmlns:xlink="http://www.w3.org/1999/xlink" x="0px" y="0px"
	 viewBox="0 0 568.6 568.6" style="enable-background:new 0 0 568.6 568.6;" xml:space="preserve">
<style type="text/css">
	.st0{fill:#FFFFFF;}
</style>
<path class="st0" d="M549.3,417.1l-69.5-69.5c-9.2-9.2-21.6-14.3-34.7-14.3c-13.2,0-25.5,5.1-34.7,14.3l-31.6,31.6
	c-7,7-16.4,10.9-26.3,10.9c-10,0-19.3-3.9-26.3-10.9l-136.9-137c-7-7-10.9-16.3-10.9-26.2c0-10,3.9-19.4,10.9-26.4l31.6-31.6
	c9.3-9.3,14.4-21.6,14.4-34.6c0-13.2-5.1-25.5-14.4-34.8l-69.5-69.3c-9.2-9.2-21.6-14.3-34.7-14.3C103.5,4.9,91.2,10,82,19.2
	L56.7,44.3C23.3,77.7,4.9,122.2,4.9,169.5s18.4,91.8,51.8,125.2l216.9,217c33.5,33.5,78,51.9,125.2,51.9
	c47.2,0,91.7-18.4,125.2-51.9l25.3-25.3C568.5,467.4,568.5,436.2,549.3,417.1z M494.2,495.1l-3.2,2.6
	c-25.9,21.6-58.7,33.5-92.3,33.5c-38.3,0-74.6-15.1-102-42.6l-216.8-217c-53.1-53.1-57-136.7-9.1-194.4l2.6-3.2l17.3-17.6L105,42.4
	c3.1-3.1,7.2-4.8,11.6-4.8c4.5,0,8.5,1.7,11.6,4.8l69.5,69.2c3.1,3,4.8,7.1,4.8,11.5c0,4.4-1.7,8.6-4.8,11.7l-14.3,14.3l-17.8,17.6
	l-2.5,2.9c-24.3,27.6-23,69.6,3.1,95.6l137,137.3c13.2,13.1,30.7,20.3,49.3,20.3c17.1,0,33.5-6.2,46.1-17.4l2.9-2.5l17.6-17.7
	l14.3-14.3c3.1-3.1,7.2-4.8,11.6-4.8c4.5,0,8.5,1.7,11.6,4.8l69.5,69.5c3.1,3.1,4.8,7.2,4.8,11.6c0,4.5-1.7,8.5-4.8,11.6l-14.3,14.3
	L494.2,495.1z"/>
</svg>
