<?xml version="1.0" encoding="utf-8"?>
<!-- Generator: Adobe Illustrator 22.0.1, SVG Export Plug-In . SVG Version: 6.00 Build 0)  -->
<svg version="1.1" id="Layer_1" xmlns="http://www.w3.org/2000/svg" xmlns:xlink="http://www.w3.org/1999/xlink" x="0px" y="0px"
	 viewBox="0 0 756 788.1" style="enable-background:new 0 0 756 788.1;" xml:space="preserve">
<style type="text/css">
	.st0{fill:#FFFFFF;}
</style>
<g>
	<path class="st0" d="M378.2,134c-74.3,0-134.8,60.5-134.8,134.8s60.5,134.8,134.8,134.8c74.3,0,134.8-60.5,134.8-134.8
		S452.5,134,378.2,134z M378.2,356.2c-48.2,0-87.5-39.2-87.5-87.5c0-48.2,39.2-87.5,87.5-87.5c48.2,0,87.5,39.2,87.5,87.5
		C465.7,317,426.4,356.2,378.2,356.2z"/>
	<path class="st0" d="M599.5,5.8H156.9c-39,0-70.7,27.1-70.7,60.4V722c0,33.3,31.7,60.4,70.7,60.4h442.6c39,0,70.7-27.1,70.7-60.4
		V66.1C670.3,32.9,638.5,5.8,599.5,5.8z M494,429.7H262.5c-43.8,0-79.4,30.3-79.4,67.6v128.1H136V66.1c0-9,9.4-16.3,20.9-16.3h442.6
		c11.5,0,20.9,7.3,20.9,16.3v559.3h-47.1V497.3C573.3,460,537.7,429.7,494,429.7z M232.9,497.3c0-13,13.3-23.6,29.6-23.6H494
		c16.3,0,29.6,10.6,29.6,23.6v128.1H232.9V497.3z M136,669.4h484.5V722c0,9-9.4,16.3-20.9,16.3H156.9c-11.5,0-20.9-7.3-20.9-16.3
		V669.4z"/>
</g>
</svg>
