<?xml version="1.0" encoding="utf-8"?>
<!-- Generator: Adobe Illustrator 22.0.1, SVG Export Plug-In . SVG Version: 6.00 Build 0)  -->
<svg version="1.1" id="Capa_1" xmlns="http://www.w3.org/2000/svg" xmlns:xlink="http://www.w3.org/1999/xlink" x="0px" y="0px"
	 viewBox="0 0 608 614" style="enable-background:new 0 0 608 614;" xml:space="preserve">
<style type="text/css">
	.st0{fill:#FFFFFF;}
</style>
<g>
	<path class="st0" d="M404.7,8.6H158.3c-43.3,0-78.5,35.2-78.5,78.5V527c0,43.3,35.2,78.5,78.5,78.5h313.7
		c43.3,0,78.5-35.2,78.5-78.5V154.5L404.7,8.6z M415.8,178.7H516v340.6c0,28.3-23,51.3-51.3,51.3H165.4c-28.2,0-51.1-22.9-51.1-51.2
		V94.4c0-28.3,23-51.3,51.3-51.3h214.7v100.2C380.4,162.8,396.3,178.7,415.8,178.7z M422.1,144.3c-4,0-7.2-3.2-7.2-7.2V67.5
		l76.7,76.7H422.1z"/>
	<path class="st0" d="M181.5,282.8c0,9.5,6.7,17.2,14.9,17.2H434c8.2,0,14.9-7.7,14.9-17.2c0-9.5-6.7-17.2-14.9-17.2H196.4
		C188.2,265.5,181.5,273.2,181.5,282.8z"/>
	<path class="st0" d="M434,372.2H196.4c-8.2,0-14.9,7.7-14.9,17.2c0,9.7,6.5,17.2,14.9,17.2H434c8.2,0,14.9-7.7,14.9-17.2
		C448.9,379.7,442.4,372.2,434,372.2z"/>
</g>
</svg>
