<?xml version="1.0" encoding="utf-8"?>
<!-- Generator: Adobe Illustrator 22.0.1, SVG Export Plug-In . SVG Version: 6.00 Build 0)  -->
<svg version="1.1" id="Capa_1" xmlns="http://www.w3.org/2000/svg" xmlns:xlink="http://www.w3.org/1999/xlink" x="0px" y="0px"
	 viewBox="0 0 608 608" style="enable-background:new 0 0 608 608;" xml:space="preserve">
<style type="text/css">
	.st0{fill:#FFFFFF;}
</style>
<path class="st0" d="M60.1,575.4C28.8,573.6,3.9,548,3.9,516.7V91.4c0-32.5,26.8-58.9,59.7-58.9h480.7c32.9,0,59.7,26.4,59.7,58.8
	v425.3c0,32.4-26.8,58.8-59.7,58.8H60.1z M44.2,505c0,17.8,14.6,32.2,32.6,32.2h454.3c18,0,32.6-14.5,32.6-32.2v-311H44.2V505z
	 M76.8,70.8c-18,0-32.6,14.5-32.6,32.2v60h519.7v-60c0-17.8-14.6-32.2-32.6-32.2H76.8z"/>
</svg>
